<svg xmlns="http://www.w3.org/2000/svg" version="1.1" xmlns:xlink="http://www.w3.org/1999/xlink" xmlns:svgjs="http://svgjs.com/svgjs" width="512" height="512" x="0" y="0" viewBox="0 0 512 512" style="enable-background:new 0 0 512 512" xml:space="preserve" class=""><g><path d="M441.541 112.307c.037-.912.211-5.109-4.043-7.162-.063-.03-178.916-104-178.916-104a8.45 8.45 0 0 0-8.47-.016l-75.673 43.693c-2.655 1.58-4.17 4.219-4.227 7.345-.03 1.547.151 53.023.151 53.023L73.882 160.9c-3.656 2.074-4.349 4.021-4.228 7.349l.66 231.592a8.429 8.429 0 0 0 4.211 7.283l178.74 103.875c4.456 2.17 7.785.309 10.002-.862L438.133 409.18a8.46 8.46 0 0 0 4.226-7.348zM254.323 18.222l161.899 94.085-58.795 33.949h-.004l-161.89-94.088zM348.977 160.9l.105 38.336-161.813-94.045-.108-38.333zM87.208 394.945l-.604-212.012 161.813 94.034.605 212.016zm169.665-132.614L94.974 168.249l83.841-48.413 161.9 94.09zm9.057 226.741-.602-212.1v-.006l96.479-55.69c3.699-2.267 4.22-5.555 4.226-7.334v-.017l-.148-53.026 58.791-33.949.758 270.034zm100.259-217.22c-.007-2.259-.89-4.412-2.47-5.944-2.885-2.802-7.623-2.837-10.213-1.353l-25.145 14.521a8.463 8.463 0 0 0-4.229 7.348l.33 115.74c.281 9.492 10.019 8.887 12.682 7.299l25.146-14.522c3.432-1.848 4.297-3.967 4.227-7.349zm-16.621 101.05-8.291-4.816v-.006l-.218-76.813 8.265-4.771.244 86.401z" fill="#ffffff" data-original="#000000" class=""></path></g></svg>